<svg width="31" height="25" viewBox="0 0 31 25" fill="none" xmlns="http://www.w3.org/2000/svg">
<path d="M30.6818 2.95962C29.5408 3.46154 28.3251 3.79423 27.0575 3.95577C28.3615 3.175 29.3567 1.94808 29.8246 0.469231C28.6089 1.19615 27.2665 1.70962 25.836 1.99615C24.6816 0.763462 23.0363 0 21.2414 0C17.759 0 14.9555 2.83462 14.9555 6.30962C14.9555 6.80962 14.9977 7.29038 15.1012 7.74808C9.87187 7.49231 5.24467 4.97885 2.13622 1.15C1.59354 2.09423 1.27521 3.175 1.27521 4.33846C1.27521 6.52308 2.39702 8.45961 4.06918 9.58077C3.05859 9.56154 2.06719 9.26731 1.22727 8.80385C1.22727 8.82308 1.22727 8.84808 1.22727 8.87308C1.22727 11.9385 3.4076 14.4846 6.26676 15.0712C5.75476 15.2115 5.19673 15.2788 4.61761 15.2788C4.21491 15.2788 3.80838 15.2558 3.42678 15.1712C4.24176 17.6692 6.5544 19.5058 9.30426 19.5654C7.16421 21.2442 4.44695 22.2558 1.50533 22.2558C0.989489 22.2558 0.494744 22.2327 0 22.1692C2.78629 23.9712 6.08842 25 9.64943 25C21.2241 25 27.5523 15.3846 27.5523 7.05C27.5523 6.77115 27.5427 6.50192 27.5293 6.23462C28.7776 5.34615 29.8266 4.23654 30.6818 2.95962Z" fill="white"/>
</svg>
